<svg viewBox="0 0 1000 1000" xmlns="http://www.w3.org/2000/svg"><g fill="#edeeef"><path d="m601 401.13-107 28.33s-190.75 100.77-288.25 288.26l-21.39 8.54 78 59.28 208.39-165.82s123.4-27 135.74-78-5.49-140.59-5.49-140.59z"/><path d="m520.65 436s-20.19 329.5 36.83 485.5l-11.91 17.5h101.43s11.08-419.09 11.08-509.54z"/><path d="m597.7 181.09v42.82l-53.05 13.03v-72.26l53.05-13.03z"/></g><circle cx="567.73" cy="194.48" r="1.42"/><circle cx="589.52" cy="194.48" r="1.42"/><path d="m583.13 202.94v-21.85h10.95" fill="none" stroke="#000" stroke-miterlimit="10" stroke-width="2"/><path d="m565.06 181.09h10.95" fill="none" stroke="#000" stroke-miterlimit="10" stroke-width="2"/><path d="m548.15 192.29v7.59a7.42 7.42 0 0 1 -7.42-7.42c0-.23 0-.45 0-.67.45-4.61 7.42-4.13 7.42.5z" fill="#edeeef"/><g fill="none" stroke-miterlimit="10" stroke-width="2"><path d="m548.15 199.88a7.42 7.42 0 0 1 -7.42-7.42" stroke="#000"/><path d="m578.34 208.33a7.5 7.5 0 0 1 -7.51-7.5" stroke="#ff6498"/><g stroke="#000"><path d="m597.7 223.91-53.05 13.03"/><path d="m583.13 202.96-4.79 1.18" stroke-linecap="round"/></g></g><path d="m494 313.62v115.84l164.1 40.33v-129a99.38 99.38 0 0 0 -75.65-96.5 71.41 71.41 0 0 0 -88.45 69.33z" fill="#ff6498"/><g fill="none" stroke="#000" stroke-miterlimit="10" stroke-width="2"><path d="m520.65 436s-20.19 329.5 36.83 485.5"/><path d="m549.75 188.57a25.35 25.35 0 0 0 5-20.1s29 14.24 46.25 12.62"/><path d="m597.7 192s10.44-7.88 11.8-17.54c3-21.25-34.2-45-64.85-19.5l5.1-10.5s-26.9 11.36-8.07 45.18"/><path d="m619.44 262.14s48 30.58 86 86.58l7.51-64s-18-26-4-27c0 0 13-60.55 29-20.78s54.05 160.06 21.05 199.06-158-53.29-158-53.29"/><path d="m535 249s-54.66 28.39-76 73.73l-17.33-106s12-18.43-2.67-20.55c0 0-.67-20.54-6-18.66s-56.8 124.54-35.4 194.54 96.4 19.32 96.4 19.32"/></g><path d="m610.84 389.66s5.27 45.06 47.22 65.06v-35.82"/></svg>