<svg viewBox="0 0 1000 1000" xmlns="http://www.w3.org/2000/svg"><g fill="#ff6498"><path d="m545.29 469.79s164.07 124.06 141.57 184.06-135 120-135 120l-6.58 34.5-64.1-70.5 64.1-112.49s-55.28-15-64.1-42-29.55-150.53-29.55-150.53"/><circle cx="482.23" cy="193.06" r="16.33"/><path d="m518.61 436s20.19 329.5-36.83 485.5l11.91 17.5h-101.41s-11.08-419.09-11.08-509.54z"/></g><path d="m490.41 181.09v42.82l-53.05 13.03v-72.26l53.05-13.03z" fill="#edeeef"/><circle cx="460.44" cy="194.48" r="1.42"/><circle cx="482.23" cy="194.48" r="1.42"/><path d="m475.84 202.94v-21.85h10.95" fill="none" stroke="#000" stroke-miterlimit="10" stroke-width="2"/><path d="m457.77 181.09h10.95" fill="none" stroke="#000" stroke-miterlimit="10" stroke-width="2"/><path d="m440.86 192.29v7.59a7.42 7.42 0 0 1 -7.42-7.42c0-.23 0-.45 0-.67.45-4.61 7.42-4.13 7.42.5z" fill="#edeeef"/><g fill="none" stroke-miterlimit="10" stroke-width="2"><path d="m440.86 199.88a7.42 7.42 0 0 1 -7.42-7.42" stroke="#000"/><path d="m471.05 208.33a7.5 7.5 0 0 1 -7.51-7.5" stroke="#ff6498"/><g stroke="#000"><path d="m490.41 223.91-53.05 13.03"/><path d="m475.84 202.96-4.79 1.18" stroke-linecap="round"/><path d="m442 190.4s5.83-4.11 4.83-12.89 0-16.89 13.66-18.5a279.72 279.72 0 0 1 30-1.45"/><path d="m490.41 177.51s26.42-47.61-24.23-57.61-67.12 22.29-63.9 47.25c3.5 27.07 20.74 35 34.87 39.5"/></g></g><path d="m381.2 313.62v115.84l164.09 40.33v-129a99.38 99.38 0 0 0 -75.65-96.5 71.41 71.41 0 0 0 -88.44 69.34z" fill="#edeeef"/><circle cx="430.87" cy="193.06" fill="#ff6498" r="16.33"/><g fill="none" stroke="#000" stroke-miterlimit="10" stroke-width="2"><path d="m447.2 193.06a16.34 16.34 0 1 1 -32.67 0"/><path d="m518.61 436s20.19 329.5-36.83 485.5"/><path d="m405.16 260.26s-43.88 30.64-51.88 110.64 92 150 198 34c0 0 31-23 32-42s-38 4.16-38 4.16 11-6.16 0-7.16-13 10.33-13 10.33l-94.92 16.17 14.28-60"/></g><path d="m382.2 445.48v63.41c74.92 17.49 117.74-61.08 117.74-61.08-47.94 28.19-90.83 21.19-117.74-2.33z"/><path d="m545.29 359.9c5 .44 5.45 1.93 4.5 3.44l1.51.43c5.49-2.83 13.75-6.65 20.5-7.92l3.48-31.29h-31.28l-4 35.95a12.3 12.3 0 0 1 5.29-.61z"/><g fill="none" stroke="#000" stroke-miterlimit="10" stroke-width="2"><path d="m429.28 209.4s-14 82.5 26.67 76.5 100.66-20.34 95 40"/><path d="m488.49 251s88.51 30.23 101.13 35.56c0 0-.63-72.32-6.32-77.16s-16.35-23.12-5-28.31c0 0-9.33-23.87-3-23.53s7.67 10.34 17 12.34 107.98 144 56.7 186.1c-36.22 29.7-73.67 25.25-73.67 25.25"/></g></svg>